#!OML:ASF H:\Martial Arts Walks\Project 1\Capture day 1\Session 1\male.ASF
:FULLY-SPECIFIED
:DEGREES
1461
root -2.15946 14.2435 -20.1787 15.5722 33.419 14.3089
lowerback 14.0429 0.823601 -12.3112
upperback -1.76864 -1.14946 -1.18837
thorax -9.70173 0.0945272 5.9098
lowerneck -0.656268 -10.8394 -13.0636
upperneck 4.09684 -14.5697 8.17605
head 2.87317 -7.3059 3.93093
rclavicle -5.29761e-014 1.98785e-014
rhumerus 5.37142 10.8463 -55.3135
rradius 36.526
rwrist 28.6935
rhand -13.8167 -1.23557
rfingers 7.12502
rthumb 12.3059 -30.8535
lclavicle -5.29761e-014 1.98785e-014
lhumerus -69.1875 -20.4272 105.293
lradius 100.462
lwrist 42.772
lhand 1.28237 33.6076
lfingers 7.12502
lthumb 26.8181 61.726
rfemur -67.0807 -28.0886 4.56369
rtibia 73.9885
rfoot -6.46496 -11.0804
rtoes 0.542607
lfemur 15.0372 -1.15238 -10.51
ltibia 14.9468
lfoot -8.52639 28.0457
ltoes -38.2314
1462
root -2.14402 14.2145 -20.3419 15.1751 33.1321 14.5861
lowerback 14.8091 1.15403 -12.8468
upperback -1.50864 -0.917275 -1.38039
thorax -9.9007 0.231843 5.95672
lowerneck -0.392163 -11.0297 -13.0135
upperneck 3.35958 -14.8584 8.689
head 2.67555 -7.44076 4.08959
rclavicle -1.45113e-014 2.8625e-014
rhumerus 5.18302 12.248 -54.6282
rradius 35.9847
rwrist 22.5337
rhand -13.2574 -1.21431
rfingers 7.12502
rthumb 12.845 -30.7991
lclavicle -1.45113e-014 2.8625e-014
lhumerus -71.4646 -19.5335 104.755
lradius 100.955
lwrist 45.1162
lhand 0.600684 31.0081
lfingers 7.12502
lthumb 26.1656 59.2249
rfemur -66.8704 -27.3831 3.63684
rtibia 73.6241
rfoot -6.78126 -8.78524
rtoes -0.737696
lfemur 14.3229 -0.742979 -11.015
ltibia 17.0458
lfoot -9.32008 28.5976
ltoes -38.8458
1463
root -2.13933 14.1911 -20.4908 14.7962 32.9401 14.8855
lowerback 15.5564 1.46373 -13.4559
upperback -1.24952 -0.728826 -1.53227
thorax -10.08 0.351995 6.09338
lowerneck 0.0288724 -11.1584 -13.0335
upperneck 2.40645 -15.065 9.18522
head 2.3855 -7.54141 4.27637
rclavicle -2.62396e-014 4.37326e-015
rhumerus 4.71772 13.7113 -54.1642
rradius 36.8412
rwrist 15.1488
rhand -12.7925 -2.12442
rfingers 7.12502
rthumb 13.2932 -31.6805
lclavicle -2.62396e-014 4.37326e-015
lhumerus -73.3059 -18.5381 104.174
lradius 101.795
lwrist 48.4851
lhand -0.753913 29.1983
lfingers 7.12502
lthumb 24.8681 57.6008
rfemur -66.5754 -26.7578 2.75683
rtibia 73.3162
rfoot -7.12784 -6.833
rtoes -1.98688
lfemur 13.3071 -0.0348667 -11.2821
ltibia 19.5399
lfoot -10.143 28.7091
ltoes -39.3312
1464
root -2.14322 14.1749 -20.622 14.3824 32.8732 15.1008
lowerback 16.2088 1.73815 -14.0373
upperback -0.998196 -0.570574 -1.62831
thorax -10.206 0.454296 6.27894
lowerneck 0.503487 -11.2343 -13.0887
upperneck 1.53075 -15.1982 9.54292
head 2.09562 -7.61164 4.43547
rclavicle 4.90998e-014 -4.41302e-014
rhumerus 4.16196 14.6627 -53.9875
rradius 38.0448
rwrist 10.0285
rhand -13.1126 -3.00316
rfingers 7.12502
rthumb 12.9846 -32.5791
lclavicle 4.90998e-014 -4.41302e-014
lhumerus -74.7097 -17.4933 103.496
lradius 102.818
lwrist 51.9649
lhand -1.84016 28.5573
lfingers 7.12502
lthumb 23.8267 57.0997
rfemur -66.1813 -26.2287 2.04154
rtibia 73.0691
rfoot -7.47603 -5.17775
rtoes -3.43691
lfemur 12.2048 0.86241 -11.2804
ltibia 22.0549
lfoot -11.0181 28.5139
ltoes -39.6134
1465
root -2.15137 14.168 -20.7349 13.8818 32.9436 15.1424
lowerback 16.7226 1.96308 -14.4766
upperback -0.746357 -0.42582 -1.65683
thorax -10.2467 0.537945 6.4607
lowerneck 0.879455 -11.2799 -13.1302
upperneck 0.974266 -15.2822 9.65435
head 1.89125 -7.65914 4.50933
rclavicle -6.95746e-016 3.18055e-015
rhumerus 3.69976 14.9859 -54.0318
rradius 38.9895
rwrist 8.4269
rhand -13.5566 -3.82646
rfingers 7.12502
rthumb 12.5566 -33.4291
lclavicle -6.95746e-016 3.18055e-015
lhumerus -75.7087 -16.528 102.839
lradius 103.852
lwrist 54.8478
lhand -2.70244 28.7849
lfingers 7.12502
lthumb 22.9995 57.4328
rfemur -65.6693 -25.8178 1.58194
rtibia 72.872
rfoot -7.82301 -3.73072
rtoes -5.12011
lfemur 11.1811 1.78421 -11.0311
ltibia 24.3436
lfoot -11.9867 28.1834
ltoes -39.5067
1466
root -2.15951 14.1714 -20.8309 13.2596 33.1734 14.9725
lowerback 17.1169 2.12891 -14.6908
upperback -0.503164 -0.290392 -1.61663
thorax -10.2243 0.60237 6.59466
lowerneck 1.10415 -11.3073 -13.1189
upperneck 0.844767 -15.3336 9.47964
head 1.80733 -7.68997 4.472
rclavicle -2.52457e-014 4.01545e-014
rhumerus 3.38071 14.9018 -54.2062
rradius 39.3756
rwrist 9.89977
rhand -14.1388 -4.67922
rfingers 7.12502
rthumb 11.9952 -34.3155
lclavicle -2.52457e-014 4.01545e-014
lhumerus -76.3997 -15.7664 102.387
lradius 104.788
lwrist 56.7962
lhand -3.64083 29.352
lfingers 7.12502
lthumb 22.0988 58.1091
rfemur -65.0095 -25.5757 1.41154
rtibia 72.7163
rfoot -8.20124 -2.39186
rtoes -6.94735
lfemur 10.3661 2.54292 -10.5735
ltibia 26.2631
lfoot -12.8762 27.8463
ltoes -39.2236
1467
root -2.16299 14.1848 -20.9125 12.5401 33.5436 14.6094
lowerback 17.3835 2.22823 -14.6635
upperback -0.285963 -0.168628 -1.51446
thorax -10.1531 0.646739 6.666
lowerneck 1.21557 -11.3147 -13.0584
upperneck 1.10371 -15.3538 9.07556
head 1.83125 -7.70555 4.34358
rclavicle -2.67365e-014 1.27222e-014
rhumerus 3.19827 14.6589 -54.4564
rradius 39.2359
rwrist 12.8543
rhand -14.9736 -5.4999
rfingers 7.12502
rthumb 11.1902 -35.1815
lclavicle -2.67365e-014 1.27222e-014
lhumerus -76.8366 -15.2317 102.207
lradius 105.554
lwrist 57.7778
lhand -4.63166 30.0843
lfingers 7.12502
lthumb 21.1473 58.951
rfemur -64.2256 -25.5341 1.50468
rtibia 72.5949
rfoot -8.64596 -1.05694
rtoes -8.78078
lfemur 9.79066 3.00763 -9.99488
ltibia 27.7688
lfoot -13.7385 27.5378
ltoes -38.7713
1468
root -2.16028 14.2058 -20.9833 11.7746 34.0306 14.1449
lowerback 17.5579 2.26142 -14.4645
upperback -0.105375 -0.0823909 -1.37129
thorax -10.0619 0.66694 6.69595
lowerneck 1.29555 -11.2943 -12.993
upperneck 1.61203 -15.3379 8.59149
head 1.92423 -7.70519 4.18355
rclavicle 1.19271e-015 1.19271e-015
rhumerus 3.1243 14.3206 -54.7864
rradius 38.8019
rwrist 15.5846
rhand -15.7091 -6.15604
rfingers 7.12502
rthumb 10.4808 -35.8748
lclavicle 1.19271e-015 1.19271e-015
lhumerus -77.0616 -14.8943 102.268
lradius 106.129
lwrist 57.9087
lhand -5.64497 30.7545
lfingers 7.12502
lthumb 20.1736 59.727
rfemur -63.3451 -25.7101 1.751
rtibia 72.5116
rfoot -9.18178 0.344932
rtoes -10.3264
lfemur 9.42281 3.1342 -9.41379
ltibia 28.8861
lfoot -14.4134 27.3345
ltoes -38.1488
